<?xml version="1.0" standalone="no"?>
<!DOCTYPE svg PUBLIC "-//W3C//DTD SVG 20010904//EN"
 "http://www.w3.org/TR/2001/REC-SVG-20010904/DTD/svg10.dtd">
<svg version="1.0" xmlns="http://www.w3.org/2000/svg"
 width="512.000000pt" height="512.000000pt" viewBox="0 0 512.000000 512.000000"
 preserveAspectRatio="xMidYMid meet">

<g transform="translate(0.000000,512.000000) scale(0.100000,-0.100000)"
fill="#000000" stroke="none">
<path d="M430 3180 c-113 -126 -206 -233 -208 -238 -3 -9 2317 -2103 2336
-2110 10 -3 2342 2094 2342 2106 0 12 -410 467 -421 467 -4 0 -435 -385 -958
-855 -522 -470 -954 -855 -960 -855 -5 0 -437 385 -960 855 -522 470 -953 855
-958 856 -4 2 -100 -101 -213 -226z"/>
</g>
</svg>
